<svg width="23" height="29" viewBox="0 0 23 29" fill="none" xmlns="http://www.w3.org/2000/svg">
<path d="M19.174 15.7131C19.142 12.1695 22.0779 10.4455 22.2121 10.3653C20.5494 7.94312 17.9723 7.61218 17.0667 7.58579C14.9023 7.3582 12.8028 8.87988 11.7002 8.87988C10.5756 8.87988 8.8777 7.60778 7.04777 7.64517C4.69295 7.68145 2.48999 9.0437 1.28177 11.1591C-1.21169 15.4723 0.647952 21.8108 3.03688 25.2972C4.23189 27.0047 5.62827 28.9112 7.45601 28.8442C9.24413 28.7705 9.91206 27.7051 12.0699 27.7051C14.2079 27.7051 14.8352 28.8442 16.6992 28.8013C18.6183 28.7705 19.8265 27.0861 20.9797 25.3632C22.3607 23.4061 22.9153 21.4788 22.9373 21.3798C22.8921 21.3644 19.2103 19.9604 19.174 15.7131Z" fill="black"/>
<path d="M15.6535 5.2923C16.6152 4.09057 17.2732 2.45565 17.0905 0.796539C15.6986 0.85811 13.9578 1.75858 12.9553 2.93392C12.0684 3.96963 11.2761 5.66722 11.4808 7.26366C13.0444 7.3802 14.6499 6.47533 15.6535 5.2923Z" fill="black"/>
</svg>
