<svg width="50" height="50" viewBox="0 0 50 50" fill="none" xmlns="http://www.w3.org/2000/svg">
<g filter="url(#filter0_d)">
<circle cx="25" cy="20" r="14" fill="url(#paint0_linear)" stroke="white" stroke-width="2"/>
<path d="M21.991 17.1831L20.9298 17.2651C20.6344 17.2879 20.3714 17.4427 20.2081 17.6897L18.9842 19.5409C18.8603 19.7282 18.8406 19.9627 18.9314 20.168C19.0223 20.3734 19.2091 20.5165 19.431 20.5509L20.4027 20.7014C20.63 19.4951 21.1742 18.2917 21.991 17.1831Z" fill="white"/>
<path d="M24.2988 24.5971L24.4493 25.5689C24.4837 25.7908 24.6268 25.9775 24.8322 26.0684C24.9176 26.1062 25.0081 26.1248 25.0981 26.1248C25.2245 26.1248 25.35 26.088 25.4594 26.0156L27.3106 24.7917C27.5576 24.6284 27.7124 24.3653 27.7352 24.0701L27.8172 23.0088C26.7085 23.8257 25.5052 24.3698 24.2988 24.5971Z" fill="white"/>
<path d="M23.9329 23.9238C23.9667 23.9238 24.0006 23.921 24.0345 23.9154C24.5399 23.8309 25.027 23.6885 25.4917 23.5022L21.4978 19.5083C21.3115 19.973 21.1691 20.4601 21.0846 20.9655C21.0513 21.1647 21.1181 21.3677 21.2609 21.5105L23.4894 23.739C23.608 23.8576 23.7681 23.9238 23.9329 23.9238Z" fill="white"/>
<path d="M30.1478 19.3062C31.1252 17.4167 31.1614 15.4199 31.1103 14.4835C31.0928 14.1626 30.837 13.9068 30.5161 13.8893C30.3636 13.881 30.1829 13.875 29.9792 13.875C28.9321 13.875 27.2752 14.0336 25.6934 14.8518C24.4363 15.502 22.788 16.9337 21.8154 18.8153C21.8269 18.8243 21.8381 18.8338 21.8487 18.8443L26.1553 23.1509C26.1659 23.1615 26.1754 23.1727 26.1843 23.1842C28.0659 22.2116 29.4976 20.5633 30.1478 19.3062ZM25.9972 16.4647C26.6969 15.7651 27.8352 15.765 28.5349 16.4647C28.8738 16.8036 29.0605 17.2542 29.0605 17.7335C29.0605 18.2128 28.8738 18.6635 28.5349 19.0024C28.1851 19.3521 27.7255 19.5271 27.2661 19.5271C26.8065 19.5271 26.3471 19.3522 25.9972 19.0024C25.6583 18.6635 25.4717 18.2128 25.4717 17.7335C25.4717 17.2542 25.6583 16.8036 25.9972 16.4647Z" fill="white"/>
<path d="M26.5048 18.4947C26.9246 18.9144 27.6076 18.9145 28.0274 18.4947C28.2308 18.2913 28.3428 18.0209 28.3428 17.7334C28.3428 17.4458 28.2308 17.1754 28.0274 16.9721C27.8175 16.7622 27.5418 16.6572 27.2661 16.6572C26.9904 16.6572 26.7147 16.7622 26.5048 16.9721C26.3015 17.1754 26.1895 17.4458 26.1895 17.7334C26.1895 18.0209 26.3014 18.2913 26.5048 18.4947Z" fill="white"/>
<path d="M19.2407 23.9701C19.3326 23.9701 19.4244 23.935 19.4945 23.8649L20.6662 22.6932C20.8064 22.5531 20.8064 22.3258 20.6662 22.1857C20.5261 22.0455 20.2988 22.0455 20.1587 22.1857L18.987 23.3574C18.8468 23.4976 18.8468 23.7248 18.987 23.8649C19.057 23.935 19.1489 23.9701 19.2407 23.9701Z" fill="white"/>
<path d="M21.7404 23.2594C21.6002 23.1193 21.373 23.1193 21.2328 23.2594L18.9801 25.5121C18.84 25.6523 18.84 25.8795 18.9801 26.0197C19.0502 26.0898 19.142 26.1248 19.2339 26.1248C19.3257 26.1248 19.4176 26.0898 19.4877 26.0197L21.7404 23.767C21.8805 23.6268 21.8805 23.3996 21.7404 23.2594Z" fill="white"/>
<path d="M22.3071 24.3331L21.1354 25.5049C20.9952 25.645 20.9952 25.8722 21.1354 26.0124C21.2055 26.0825 21.2973 26.1175 21.3891 26.1175C21.481 26.1175 21.5728 26.0825 21.6429 26.0124L22.8146 24.8407C22.9548 24.7005 22.9548 24.4733 22.8146 24.3331C22.6745 24.193 22.4472 24.193 22.3071 24.3331Z" fill="white"/>
</g>
<defs>
<filter id="filter0_d" x="0" y="0" width="50" height="50" filterUnits="userSpaceOnUse" color-interpolation-filters="sRGB">
<feFlood flood-opacity="0" result="BackgroundImageFix"/>
<feColorMatrix in="SourceAlpha" type="matrix" values="0 0 0 0 0 0 0 0 0 0 0 0 0 0 0 0 0 0 127 0"/>
<feOffset dy="5"/>
<feGaussianBlur stdDeviation="5"/>
<feColorMatrix type="matrix" values="0 0 0 0 0.121569 0 0 0 0 0.235294 0 0 0 0 0.266667 0 0 0 0.08 0"/>
<feBlend mode="normal" in2="BackgroundImageFix" result="effect1_dropShadow"/>
<feBlend mode="normal" in="SourceGraphic" in2="effect1_dropShadow" result="shape"/>
</filter>
<linearGradient id="paint0_linear" x1="35.5" y1="27" x2="15.375" y2="10.375" gradientUnits="userSpaceOnUse">
<stop stop-color="#562CCD"/>
<stop offset="1" stop-color="#9D62FC"/>
</linearGradient>
</defs>
</svg>
