<svg width="52" height="52" viewBox="0 0 52 52" fill="none" xmlns="http://www.w3.org/2000/svg">
<path fill-rule="evenodd" clip-rule="evenodd" d="M38.2156 15.4049V15.4049C37.4074 15.4049 36.6751 14.9391 36.3306 14.2111C35.7088 12.8938 34.9179 11.2103 34.4499 10.2938C33.7588 8.93095 32.6386 8.13795 31.0873 8.12711C31.0613 8.12495 20.9386 8.12495 20.9126 8.12711C19.3613 8.13795 18.2433 8.93095 17.5499 10.2938C17.0841 11.2103 16.2933 12.8938 15.6714 14.2111C15.3269 14.9391 14.5924 15.4049 13.7864 15.4049V15.4049C9.46175 15.4049 5.95825 18.9084 5.95825 23.2309V36.0923C5.95825 40.4126 9.46175 43.9183 13.7864 43.9183H38.2156C42.5381 43.9183 46.0416 40.4126 46.0416 36.0923V23.2309C46.0416 18.9084 42.5381 15.4049 38.2156 15.4049Z" stroke="#0F2937" stroke-width="1.5" stroke-linecap="round" stroke-linejoin="round"/>
<path fill-rule="evenodd" clip-rule="evenodd" d="M19.1135 28.8914C19.1113 32.6896 22.2118 35.7966 26.0035 35.7944C29.7887 35.7901 32.8805 32.6961 32.887 28.9066C32.8935 25.1019 29.8038 22.0014 26.0078 21.9971C22.1902 21.9927 19.0832 25.1452 19.1135 28.8914Z" stroke="#0F2937" stroke-width="1.5" stroke-linecap="round" stroke-linejoin="round"/>
<path d="M36.6222 23.8227C36.4128 23.8012 36.2061 23.7466 35.9745 23.6534C35.7169 23.539 35.494 23.3934 35.2784 23.1744C34.891 22.7624 34.6667 22.2236 34.6667 21.6677C34.6667 21.3725 34.7271 21.0798 34.845 20.8148C34.9631 20.5462 35.1031 20.3196 35.3561 20.0732C35.5486 19.9056 35.7458 19.7707 36.0153 19.6519C36.8146 19.3352 37.7653 19.5245 38.3595 20.1184C38.5375 20.2938 38.6875 20.5056 38.7707 20.6841L38.82 20.8107C38.9397 21.0798 39.0001 21.3725 39.0001 21.6677C39.0001 22.2348 38.7787 22.7593 38.3677 23.1958C38.0125 23.5534 37.546 23.7733 37.0484 23.8227L36.8334 23.8333L36.6222 23.8227Z" fill="#0F2937"/>
</svg>
