<svg width="24" height="24" viewBox="0 0 24 24" fill="none" xmlns="http://www.w3.org/2000/svg">
<path d="M2.00195 12.002C2.00312 16.9214 5.58036 21.11 10.439 21.881V14.892H7.90195V12.002H10.442V9.802C10.3284 8.75954 10.6845 7.72059 11.4136 6.96693C12.1427 6.21327 13.1693 5.82301 14.215 5.902C14.9655 5.91412 15.7141 5.98096 16.455 6.102V8.561H15.191C14.7558 8.504 14.3183 8.64772 14.0017 8.95167C13.6851 9.25561 13.5237 9.68688 13.563 10.124V12.002H16.334L15.891 14.893H13.563V21.881C18.8174 21.0506 22.502 16.2518 21.9475 10.9611C21.3929 5.67037 16.7932 1.73993 11.4808 2.01718C6.16831 2.29443 2.0028 6.68231 2.00195 12.002Z" fill="#0F2937"/>
</svg>
