<svg width="28" height="28" viewBox="0 0 28 28" fill="none" xmlns="http://www.w3.org/2000/svg">
<path d="M11.8035 20.9844H3.36365" stroke="white" stroke-width="1.5" stroke-linecap="round" stroke-linejoin="round"/>
<path fill-rule="evenodd" clip-rule="evenodd" d="M24.6375 20.9843C24.6375 22.84 23.1332 24.3443 21.2775 24.3443C19.4218 24.3443 17.9175 22.84 17.9175 20.9843C17.9175 19.1272 19.4218 17.6243 21.2775 17.6243C23.1332 17.6243 24.6375 19.1272 24.6375 20.9843Z" stroke="white" stroke-width="1.5" stroke-linecap="round" stroke-linejoin="round"/>
<path d="M16.1965 7.3059H24.6377" stroke="white" stroke-width="1.5" stroke-linecap="round" stroke-linejoin="round"/>
<path fill-rule="evenodd" clip-rule="evenodd" d="M3.36304 7.3058C3.36304 9.16286 4.86735 10.6658 6.72304 10.6658C8.57872 10.6658 10.083 9.16286 10.083 7.3058C10.083 5.45011 8.57872 3.9458 6.72304 3.9458C4.86735 3.9458 3.36304 5.45011 3.36304 7.3058Z" stroke="white" stroke-width="1.5" stroke-linecap="round" stroke-linejoin="round"/>
</svg>
