<svg width="54" height="54" viewBox="0 0 54 54" fill="none" xmlns="http://www.w3.org/2000/svg">
<g filter="url(#filter0_d)">
<circle cx="27" cy="22" r="16" fill="url(#paint0_linear)" stroke="white" stroke-width="2"/>
<path d="M30.2258 18.1163C30.2258 16.398 28.8278 15 27.1094 15C25.3911 15 23.9931 16.398 23.9931 18.1163C23.9931 19.8347 25.3911 21.2327 27.1094 21.2327C28.8278 21.2327 30.2258 19.8347 30.2258 18.1163ZM27.1094 21.2327C24.0164 21.2327 21.5 23.7491 21.5 26.8421V27.4262C21.5 27.6034 21.5754 27.7722 21.7073 27.8904C23.2255 29.2508 25.144 30 27.1094 30C29.0748 30 30.9933 29.2508 32.5115 27.8904C32.6435 27.7722 32.7188 27.6034 32.7188 27.4262V26.8421C32.7188 23.7491 30.2025 21.2327 27.1094 21.2327Z" fill="white"/>
</g>
<defs>
<filter id="filter0_d" x="0" y="0" width="54" height="54" filterUnits="userSpaceOnUse" color-interpolation-filters="sRGB">
<feFlood flood-opacity="0" result="BackgroundImageFix"/>
<feColorMatrix in="SourceAlpha" type="matrix" values="0 0 0 0 0 0 0 0 0 0 0 0 0 0 0 0 0 0 127 0"/>
<feOffset dy="5"/>
<feGaussianBlur stdDeviation="5"/>
<feColorMatrix type="matrix" values="0 0 0 0 0.121569 0 0 0 0 0.235294 0 0 0 0 0.266667 0 0 0 0.08 0"/>
<feBlend mode="normal" in2="BackgroundImageFix" result="effect1_dropShadow"/>
<feBlend mode="normal" in="SourceGraphic" in2="effect1_dropShadow" result="shape"/>
</filter>
<linearGradient id="paint0_linear" x1="39" y1="30" x2="16" y2="11" gradientUnits="userSpaceOnUse">
<stop stop-color="#4176DC"/>
<stop offset="1" stop-color="#31A9DD"/>
</linearGradient>
</defs>
</svg>
