<svg width="24" height="24" viewBox="0 0 24 24" fill="none" xmlns="http://www.w3.org/2000/svg">
<path d="M11.9562 10.356V13.807H16.7482C16.3022 16 14.4352 17.26 11.9562 17.26C9.06875 17.2203 6.74887 14.8682 6.74887 11.9805C6.74887 9.09278 9.06875 6.74074 11.9562 6.701C13.1564 6.69956 14.3197 7.11608 15.2462 7.879L17.8462 5.279C14.8638 2.65707 10.5082 2.31984 7.15776 4.45145C3.80732 6.58306 2.26723 10.6712 3.37845 14.4836C4.48968 18.296 7.98515 20.9164 11.9562 20.914C16.4232 20.914 20.4852 17.665 20.4852 11.98C20.4783 11.4326 20.4112 10.8877 20.2852 10.355L11.9562 10.356Z" fill="#0F2937"/>
</svg>
