<svg width="54" height="54" viewBox="0 0 54 54" fill="none" xmlns="http://www.w3.org/2000/svg">
<g filter="url(#filter0_d)">
<circle cx="27" cy="22" r="16" fill="url(#paint0_linear)" stroke="white" stroke-width="2"/>
<path d="M29.0467 27.6453C31.8843 26.6364 32.8421 24.315 33.7397 21.672C33.9238 21.13 34.1654 20.5678 34.3682 20.1272C34.5611 19.7079 34.3399 19.2159 33.9003 19.0793C31.0188 18.1839 29.8779 16.2357 28.4128 16.0241C27.0688 15.83 26.0468 16.8365 25.7098 18.0181C24.712 17.3039 23.2871 17.1544 22.3561 18.1453C21.3412 19.2254 21.6586 21.4619 19.9601 23.9613C19.701 24.3427 19.8336 24.8657 20.2449 25.0733C20.6773 25.2915 21.2155 25.5806 21.6963 25.8898C24.0156 27.3816 26.3328 28.6388 29.0467 27.6453Z" fill="white"/>
<path d="M33.8533 19.0797C30.9718 18.1843 29.8309 16.2361 28.3659 16.0245C28.0399 15.9775 27.7329 16.0012 27.4499 16.0808C28.7977 16.4657 29.9683 18.2379 32.6773 19.0797C33.117 19.2164 33.3382 19.7084 33.1452 20.1276C32.9425 20.5683 32.7009 21.1304 32.5168 21.6725C31.6192 24.3154 30.6614 26.6368 27.8237 27.6457C27.3561 27.8169 26.9002 27.9213 26.4541 27.9691C27.2696 28.0545 28.1135 27.9702 28.9997 27.6457C31.8374 26.6368 32.7952 24.3154 33.6928 21.6725C33.8769 21.1304 34.1184 20.5682 34.3212 20.1276C34.5141 19.7084 34.293 19.2164 33.8533 19.0797Z" fill="#E8E8E8"/>
<path d="M22.6853 23.2305L22.4219 23.407C22.4219 23.407 22.5241 23.3466 22.6853 23.2305Z" fill="white"/>
<path d="M31.2275 20.2396C31.4258 20.2299 31.5434 20.2134 31.5434 20.2134L31.2275 20.2396Z" fill="white"/>
<path d="M28.3235 19.562C27.3014 20.7655 26.0811 21.179 24.5379 20.8878C24.1352 22.0727 23.1581 22.891 22.6865 23.2309L22.7778 23.1697C22.7778 23.1697 25.0936 21.4559 27.3301 22.8059C28.2416 20.3535 31.1181 20.2488 31.1181 20.2488L31.2275 20.2397C30.6474 20.2681 29.3746 20.2378 28.3235 19.562Z" fill="#FF5492"/>
</g>
<defs>
<filter id="filter0_d" x="0" y="0" width="54" height="54" filterUnits="userSpaceOnUse" color-interpolation-filters="sRGB">
<feFlood flood-opacity="0" result="BackgroundImageFix"/>
<feColorMatrix in="SourceAlpha" type="matrix" values="0 0 0 0 0 0 0 0 0 0 0 0 0 0 0 0 0 0 127 0"/>
<feOffset dy="5"/>
<feGaussianBlur stdDeviation="5"/>
<feColorMatrix type="matrix" values="0 0 0 0 0.121569 0 0 0 0 0.235294 0 0 0 0 0.266667 0 0 0 0.08 0"/>
<feBlend mode="normal" in2="BackgroundImageFix" result="effect1_dropShadow"/>
<feBlend mode="normal" in="SourceGraphic" in2="effect1_dropShadow" result="shape"/>
</filter>
<linearGradient id="paint0_linear" x1="40" y1="30" x2="15" y2="13" gradientUnits="userSpaceOnUse">
<stop stop-color="#C92C65"/>
<stop offset="1" stop-color="#FF5492"/>
</linearGradient>
</defs>
</svg>
