<svg width="75" height="75" viewBox="0 0 75 75" fill="none" xmlns="http://www.w3.org/2000/svg">
<g filter="url(#filter0_d)">
<circle cx="37.5" cy="32.5" r="26.5" fill="url(#paint0_linear)" stroke="white" stroke-width="2"/>
<path d="M40.8894 41.85C45.5894 40.179 47.1757 36.3342 48.6623 31.9568C48.9672 31.059 49.3673 30.1279 49.7032 29.3982C50.0227 28.7038 49.6564 27.8889 48.9282 27.6626C44.1557 26.1795 42.2662 22.9529 39.8397 22.6024C37.6136 22.2809 35.9209 23.9479 35.3627 25.905C33.7102 24.7221 31.3502 24.4744 29.8082 26.1156C28.1272 27.9045 28.653 31.6088 25.8399 35.7484C25.4107 36.3801 25.6302 37.2464 26.3116 37.5902C27.0277 37.9516 27.9191 38.4304 28.7154 38.9425C32.5568 41.4133 36.3946 43.4955 40.8894 41.85Z" fill="white"/>
<path d="M48.8508 27.6632C44.0784 26.1801 42.1888 22.9535 39.7623 22.6031C39.2224 22.5251 38.7139 22.5644 38.2452 22.6962C40.4776 23.3338 42.4163 26.2689 46.9031 27.6632C47.6314 27.8895 47.9977 28.7045 47.6781 29.3988C47.3423 30.1286 46.9422 31.0597 46.6373 31.9575C45.1507 36.3349 43.5643 40.1795 38.8644 41.8507C38.0898 42.1342 37.3348 42.307 36.5959 42.3863C37.9466 42.5277 39.3443 42.388 40.8121 41.8507C45.512 40.1796 47.0984 36.3349 48.585 31.9575C48.8899 31.0597 49.29 30.1285 49.6258 29.3988C49.9454 28.7044 49.579 27.8895 48.8508 27.6632Z" fill="#E8E8E8"/>
<path d="M30.3538 34.5381L29.9175 34.8305C29.9175 34.8305 30.0869 34.7304 30.3538 34.5381Z" fill="white"/>
<path d="M44.502 29.5845C44.8303 29.5684 45.025 29.541 45.025 29.541L44.502 29.5845Z" fill="white"/>
<path d="M39.6919 28.4622C37.9992 30.4555 35.9779 31.1403 33.422 30.658C32.7552 32.6205 31.1367 33.9758 30.3557 34.5387L30.507 34.4374C30.507 34.4374 34.3424 31.599 38.0467 33.8348C39.5563 29.773 44.3205 29.5997 44.3205 29.5997L44.5018 29.5846C43.5409 29.6316 41.4328 29.5815 39.6919 28.4622Z" fill="#FF5492"/>
</g>
<defs>
<filter id="filter0_d" x="0" y="0" width="75" height="75" filterUnits="userSpaceOnUse" color-interpolation-filters="sRGB">
<feFlood flood-opacity="0" result="BackgroundImageFix"/>
<feColorMatrix in="SourceAlpha" type="matrix" values="0 0 0 0 0 0 0 0 0 0 0 0 0 0 0 0 0 0 127 0"/>
<feOffset dy="5"/>
<feGaussianBlur stdDeviation="5"/>
<feColorMatrix type="matrix" values="0 0 0 0 0.121569 0 0 0 0 0.235294 0 0 0 0 0.266667 0 0 0 0.08 0"/>
<feBlend mode="normal" in2="BackgroundImageFix" result="effect1_dropShadow"/>
<feBlend mode="normal" in="SourceGraphic" in2="effect1_dropShadow" result="shape"/>
</filter>
<linearGradient id="paint0_linear" x1="59.0312" y1="45.75" x2="17.625" y2="17.5937" gradientUnits="userSpaceOnUse">
<stop stop-color="#E6437E"/>
<stop offset="1" stop-color="#FF5492"/>
</linearGradient>
</defs>
</svg>
