<svg width="54" height="54" viewBox="0 0 54 54" fill="none" xmlns="http://www.w3.org/2000/svg">
<g filter="url(#filter0_d)">
<circle cx="27" cy="22" r="16" fill="url(#paint0_linear)" stroke="white" stroke-width="2"/>
<path d="M20.5 20.0627V26.5627C20.5 27.0114 20.8637 27.3752 21.3125 27.3752H23.75V19.2502H21.3125C20.8637 19.2502 20.5 19.614 20.5 20.0627Z" fill="white"/>
<path d="M31.9996 20.0624H29.5994C29.3895 20.0624 29.2844 19.9224 29.249 19.8621C29.2137 19.8022 29.1423 19.6423 29.2439 19.459L30.0901 17.9352C30.2758 17.6015 30.2948 17.2092 30.1429 16.8589C29.9909 16.5081 29.691 16.2538 29.3201 16.1614L28.7234 16.0122C28.5782 15.9757 28.4242 16.0222 28.3231 16.1344L25.0834 19.7335C24.7474 20.1077 24.5625 20.5901 24.5625 21.0923V25.3437C24.5625 26.4636 25.4738 27.3749 26.5937 27.3749L30.6352 27.3745C31.5477 27.3745 32.3534 26.76 32.5942 25.8804L33.4615 21.9005C33.4869 21.7898 33.5 21.6763 33.5 21.5628C33.5 20.7357 32.8267 20.0624 31.9995 20.0624L31.9996 20.0624Z" fill="white"/>
</g>
<defs>
<filter id="filter0_d" x="0" y="0" width="54" height="54" filterUnits="userSpaceOnUse" color-interpolation-filters="sRGB">
<feFlood flood-opacity="0" result="BackgroundImageFix"/>
<feColorMatrix in="SourceAlpha" type="matrix" values="0 0 0 0 0 0 0 0 0 0 0 0 0 0 0 0 0 0 127 0"/>
<feOffset dy="5"/>
<feGaussianBlur stdDeviation="5"/>
<feColorMatrix type="matrix" values="0 0 0 0 0.121569 0 0 0 0 0.235294 0 0 0 0 0.266667 0 0 0 0.08 0"/>
<feBlend mode="normal" in2="BackgroundImageFix" result="effect1_dropShadow"/>
<feBlend mode="normal" in="SourceGraphic" in2="effect1_dropShadow" result="shape"/>
</filter>
<linearGradient id="paint0_linear" x1="39" y1="30" x2="16" y2="11" gradientUnits="userSpaceOnUse">
<stop stop-color="#29ABBC"/>
<stop offset="1" stop-color="#31C9DD"/>
</linearGradient>
</defs>
</svg>
