<svg width="24" height="24" viewBox="0 0 24 24" fill="none" xmlns="http://www.w3.org/2000/svg">
<ellipse cx="11.5788" cy="7.44478" rx="4.77803" ry="4.77803" stroke="#0F2937" stroke-width="1.5" stroke-linecap="round" stroke-linejoin="round"/>
<path fill-rule="evenodd" clip-rule="evenodd" d="M4.00002 18.8681C3.99873 18.5322 4.07385 18.2004 4.2197 17.8978C4.67736 16.9825 5.96798 16.4973 7.03892 16.2777C7.81128 16.1128 8.59431 16.0027 9.38217 15.9481C10.8408 15.82 12.3079 15.82 13.7666 15.9481C14.5544 16.0034 15.3374 16.1135 16.1099 16.2777C17.1808 16.4973 18.4714 16.9367 18.9291 17.8978C19.2224 18.5146 19.2224 19.2307 18.9291 19.8475C18.4714 20.8086 17.1808 21.2479 16.1099 21.4584C15.3384 21.6301 14.5551 21.7433 13.7666 21.7971C12.5794 21.8978 11.3866 21.9161 10.1968 21.852C9.92221 21.852 9.65677 21.852 9.38217 21.7971C8.59663 21.744 7.81632 21.6307 7.04807 21.4584C5.96798 21.2479 4.68652 20.8086 4.2197 19.8475C4.0746 19.5414 3.99955 19.2068 4.00002 18.8681Z" stroke="#0F2937" stroke-width="1.5" stroke-linecap="round" stroke-linejoin="round"/>
</svg>
