<svg width="18" height="18" viewBox="0 0 18 18" fill="none" xmlns="http://www.w3.org/2000/svg">
<path fill-rule="evenodd" clip-rule="evenodd" d="M11.8916 6.09083L7.6437 10.3671L2.67048 7.3061C2.01882 6.90493 2.1509 5.91523 2.88503 5.70215L14.6266 2.28558C15.2944 2.09234 15.9117 2.71834 15.7118 3.38917L12.228 15.1187C12.0098 15.8527 11.0312 15.9798 10.6357 15.3244L7.6437 10.3671" fill="white"/>
<path d="M11.8916 6.09083L7.6437 10.3671L2.67048 7.3061C2.01882 6.90493 2.1509 5.91523 2.88503 5.70215L14.6266 2.28558C15.2944 2.09234 15.9117 2.71834 15.7118 3.38917L12.228 15.1187C12.0098 15.8527 11.0312 15.9798 10.6357 15.3244L7.6437 10.3671" stroke="#31C9DD" stroke-linecap="round" stroke-linejoin="round"/>
</svg>
