<svg width="75" height="75" viewBox="0 0 75 75" fill="none" xmlns="http://www.w3.org/2000/svg">
<g filter="url(#filter0_d)">
<circle cx="37.5" cy="32.5" r="26.5" fill="url(#paint0_linear)" stroke="white" stroke-width="2"/>
<path d="M37.5 44.5455C44.1526 44.5455 49.5455 39.1526 49.5455 32.5C49.5455 25.8475 44.1526 20.4546 37.5 20.4546C30.8475 20.4546 25.4546 25.8475 25.4546 32.5C25.4546 39.1526 30.8475 44.5455 37.5 44.5455Z" fill="white"/>
<path d="M34.7397 31.7472C34.3242 31.7472 33.9869 31.4099 33.9869 30.9943C33.9869 30.4412 33.5372 29.9905 32.9831 29.9905C32.429 29.9905 31.9793 30.4412 31.9793 30.9943C31.9793 31.4099 31.642 31.7472 31.2265 31.7472C30.8109 31.7472 30.4736 31.4099 30.4736 30.9943C30.4736 29.6111 31.5989 28.4849 32.9831 28.4849C34.3673 28.4849 35.4926 29.6111 35.4926 30.9943C35.4926 31.4099 35.1553 31.7472 34.7397 31.7472Z" fill="#FFBF50"/>
<path d="M43.7739 31.7472C43.3583 31.7472 43.0211 31.4099 43.0211 30.9943C43.0211 30.4412 42.5714 29.9905 42.0173 29.9905C41.4632 29.9905 41.0135 30.4412 41.0135 30.9943C41.0135 31.4099 40.6762 31.7472 40.2607 31.7472C39.8451 31.7472 39.5078 31.4099 39.5078 30.9943C39.5078 29.6111 40.6331 28.4849 42.0173 28.4849C43.4015 28.4849 44.5267 29.6111 44.5267 30.9943C44.5267 31.4099 44.1895 31.7472 43.7739 31.7472Z" fill="#FFBF50"/>
<path d="M37.5 38.5229C35.3077 38.5229 33.248 37.6697 31.6981 36.1189C31.404 35.8247 31.404 35.3479 31.6981 35.0538C31.9922 34.7597 32.469 34.7597 32.7631 35.0538C34.0279 36.3206 35.7103 37.0172 37.5 37.0172C39.2898 37.0172 40.9721 36.3206 42.2379 35.0548C42.532 34.7607 43.0088 34.7607 43.3029 35.0548C43.597 35.3489 43.597 35.8257 43.3029 36.1199C41.7521 37.6697 39.6923 38.5229 37.5 38.5229Z" fill="#FFBF50"/>
</g>
<defs>
<filter id="filter0_d" x="0" y="0" width="75" height="75" filterUnits="userSpaceOnUse" color-interpolation-filters="sRGB">
<feFlood flood-opacity="0" result="BackgroundImageFix"/>
<feColorMatrix in="SourceAlpha" type="matrix" values="0 0 0 0 0 0 0 0 0 0 0 0 0 0 0 0 0 0 127 0"/>
<feOffset dy="5"/>
<feGaussianBlur stdDeviation="5"/>
<feColorMatrix type="matrix" values="0 0 0 0 0.121569 0 0 0 0 0.235294 0 0 0 0 0.266667 0 0 0 0.08 0"/>
<feBlend mode="normal" in2="BackgroundImageFix" result="effect1_dropShadow"/>
<feBlend mode="normal" in="SourceGraphic" in2="effect1_dropShadow" result="shape"/>
</filter>
<linearGradient id="paint0_linear" x1="57.375" y1="45.75" x2="19.2812" y2="14.2812" gradientUnits="userSpaceOnUse">
<stop stop-color="#FFBA4F"/>
<stop offset="1" stop-color="#FFE452"/>
</linearGradient>
</defs>
</svg>
