<svg width="55" height="55" viewBox="0 0 55 55" fill="none" xmlns="http://www.w3.org/2000/svg">
<g filter="url(#filter0_d)">
<circle cx="27.5" cy="22.5" r="16.5" fill="url(#paint0_linear)" stroke="white" stroke-width="2"/>
<path d="M27.5 30C31.6421 30 35 26.6421 35 22.5C35 18.3579 31.6421 15 27.5 15C23.3579 15 20 18.3579 20 22.5C20 26.6421 23.3579 30 27.5 30Z" fill="white"/>
<path d="M25.7813 22.0312C25.5225 22.0312 25.3125 21.8212 25.3125 21.5625C25.3125 21.2181 25.0325 20.9375 24.6875 20.9375C24.3425 20.9375 24.0625 21.2181 24.0625 21.5625C24.0625 21.8212 23.8525 22.0312 23.5938 22.0312C23.335 22.0312 23.125 21.8212 23.125 21.5625C23.125 20.7012 23.8256 20 24.6875 20C25.5494 20 26.25 20.7012 26.25 21.5625C26.25 21.8212 26.04 22.0312 25.7813 22.0312Z" fill="#FFBF50"/>
<path d="M31.4062 22.0312C31.1475 22.0312 30.9375 21.8212 30.9375 21.5625C30.9375 21.2181 30.6575 20.9375 30.3125 20.9375C29.9675 20.9375 29.6875 21.2181 29.6875 21.5625C29.6875 21.8212 29.4775 22.0312 29.2187 22.0312C28.96 22.0312 28.75 21.8212 28.75 21.5625C28.75 20.7012 29.4506 20 30.3125 20C31.1744 20 31.875 20.7012 31.875 21.5625C31.875 21.8212 31.665 22.0312 31.4062 22.0312Z" fill="#FFBF50"/>
<path d="M27.4998 26.25C26.1348 26.25 24.8523 25.7187 23.8873 24.7531C23.7042 24.57 23.7042 24.2731 23.8873 24.09C24.0705 23.9069 24.3673 23.9069 24.5505 24.09C25.338 24.8787 26.3855 25.3125 27.4998 25.3125C28.6142 25.3125 29.6617 24.8787 30.4498 24.0906C30.633 23.9075 30.9298 23.9075 31.113 24.0906C31.2961 24.2737 31.2961 24.5706 31.113 24.7537C30.1473 25.7187 28.8648 26.25 27.4998 26.25Z" fill="#FFBF50"/>
</g>
<defs>
<filter id="filter0_d" x="0" y="0" width="55" height="55" filterUnits="userSpaceOnUse" color-interpolation-filters="sRGB">
<feFlood flood-opacity="0" result="BackgroundImageFix"/>
<feColorMatrix in="SourceAlpha" type="matrix" values="0 0 0 0 0 0 0 0 0 0 0 0 0 0 0 0 0 0 127 0"/>
<feOffset dy="5"/>
<feGaussianBlur stdDeviation="5"/>
<feColorMatrix type="matrix" values="0 0 0 0 0.121569 0 0 0 0 0.235294 0 0 0 0 0.266667 0 0 0 0.08 0"/>
<feBlend mode="normal" in2="BackgroundImageFix" result="effect1_dropShadow"/>
<feBlend mode="normal" in="SourceGraphic" in2="effect1_dropShadow" result="shape"/>
</filter>
<linearGradient id="paint0_linear" x1="39.875" y1="30.75" x2="16.1562" y2="11.1562" gradientUnits="userSpaceOnUse">
<stop stop-color="#FFBA4F"/>
<stop offset="1" stop-color="#FFE452"/>
</linearGradient>
</defs>
</svg>
