<svg width="19" height="19" viewBox="0 0 19 19" fill="none" xmlns="http://www.w3.org/2000/svg">
<circle cx="9.5" cy="9.5" r="9" stroke="white"/>
<path d="M10.5002 9.5C10.5002 10.0523 10.0525 10.5 9.50018 10.5C8.94789 10.5 8.50018 10.0523 8.50018 9.5C8.50018 8.94772 8.94789 8.5 9.50018 8.5C10.0525 8.5 10.5002 8.94772 10.5002 9.5Z" fill="white"/>
<path d="M14.0002 9.5C14.0002 10.0523 13.5525 10.5 13.0002 10.5C12.4479 10.5 12.0002 10.0523 12.0002 9.5C12.0002 8.94772 12.4479 8.5 13.0002 8.5C13.5525 8.5 14.0002 8.94772 14.0002 9.5Z" fill="white"/>
<path d="M7 9.5C7 10.0523 6.55228 10.5 6 10.5C5.44772 10.5 5 10.0523 5 9.5C5 8.94772 5.44772 8.5 6 8.5C6.55228 8.5 7 8.94772 7 9.5Z" fill="white"/>
</svg>
