<svg width="20" height="23" viewBox="0 0 20 23" fill="none" xmlns="http://www.w3.org/2000/svg">
<ellipse cx="9.64868" cy="7.20386" rx="3.98169" ry="3.98169" stroke="#0F2937" stroke-width="1.5" stroke-linecap="round" stroke-linejoin="round"/>
<path fill-rule="evenodd" clip-rule="evenodd" d="M3.33302 16.7233C3.33195 16.4434 3.39455 16.1669 3.51609 15.9148C3.89748 15.152 4.97299 14.7477 5.86544 14.5646C6.50907 14.4273 7.1616 14.3355 7.81815 14.29C9.03371 14.1833 10.2563 14.1833 11.4718 14.29C12.1283 14.3361 12.7808 14.4278 13.4246 14.5646C14.317 14.7477 15.3925 15.1138 15.7739 15.9148C16.0183 16.4288 16.0183 17.0255 15.7739 17.5395C15.3925 18.3404 14.317 18.7065 13.4246 18.882C12.7817 19.025 12.1289 19.1193 11.4718 19.1642C10.4825 19.2481 9.4885 19.2634 8.49702 19.21C8.26818 19.21 8.04698 19.21 7.81815 19.1642C7.16353 19.1199 6.51327 19.0255 5.87307 18.882C4.97299 18.7065 3.9051 18.3404 3.51609 17.5395C3.39517 17.2844 3.33263 17.0056 3.33302 16.7233Z" stroke="#0F2937" stroke-width="1.5" stroke-linecap="round" stroke-linejoin="round"/>
<path d="M2 3L16.5 21.5" stroke="#0F2937" stroke-width="2"/>
<path d="M3 1.5L18 20.5" stroke="white" stroke-width="2"/>
</svg>
