<svg width="50" height="50" viewBox="0 0 50 50" fill="none" xmlns="http://www.w3.org/2000/svg">
<g filter="url(#filter0_d)">
<circle cx="25" cy="20" r="14" fill="url(#paint0_linear)" stroke="white" stroke-width="2"/>
<path d="M18.87 22.58L17.8 21.03L16.9 22.58H15.05L16.89 19.73L15 17H16.92L17.99 18.54L18.89 17H20.74L18.87 19.81L20.79 22.58H18.87Z" fill="white"/>
<path d="M25.9489 22.58L24.8789 21.03L23.9789 22.58H22.1289L23.9689 19.73L22.0789 17H23.9989L25.0689 18.54L25.9689 17H27.8189L25.9489 19.81L27.8689 22.58H25.9489Z" fill="white"/>
<path d="M33.0278 22.58L31.9578 21.03L31.0578 22.58H29.2078L31.0478 19.73L29.1578 17H31.0778L32.1478 18.54L33.0478 17H34.8978L33.0278 19.81L34.9478 22.58H33.0278Z" fill="white"/>
</g>
<defs>
<filter id="filter0_d" x="0" y="0" width="50" height="50" filterUnits="userSpaceOnUse" color-interpolation-filters="sRGB">
<feFlood flood-opacity="0" result="BackgroundImageFix"/>
<feColorMatrix in="SourceAlpha" type="matrix" values="0 0 0 0 0 0 0 0 0 0 0 0 0 0 0 0 0 0 127 0"/>
<feOffset dy="5"/>
<feGaussianBlur stdDeviation="5"/>
<feColorMatrix type="matrix" values="0 0 0 0 0.121569 0 0 0 0 0.235294 0 0 0 0 0.266667 0 0 0 0.08 0"/>
<feBlend mode="normal" in2="BackgroundImageFix" result="effect1_dropShadow"/>
<feBlend mode="normal" in="SourceGraphic" in2="effect1_dropShadow" result="shape"/>
</filter>
<linearGradient id="paint0_linear" x1="35.5" y1="27" x2="15.375" y2="10.375" gradientUnits="userSpaceOnUse">
<stop stop-color="#DD3232"/>
<stop offset="1" stop-color="#FC6A6A"/>
</linearGradient>
</defs>
</svg>
